# xmcd CD database file
#
# Track frame offsets:
#	150
#	13384
#	39290
#	66610
#	96497
#	121938
#	152339
#	179368
#	204945
#	236664
#	258912
#
# Disc length: 3852 seconds
#
# Revision: 0
# Processed by: cddbd v1.5.2PL0 Copyright (c) Steve Scherf et al.
# Submitted via: CDex 1.70beta2
#
DISCID=920f0a0b
DTITLE=近藤和彦 - サブスタンス
DYEAR=2009
DGENRE=Jazz
TTITLE0=To Joy
TTITLE1=From Doctone
TTITLE2=Skeptical Thinking
TTITLE3=Under The Dim Light
TTITLE4=El Cantarro De Mallorca
TTITLE5=Unexpected
TTITLE6=E-Z Pass
TTITLE7=Swallow's Dance
TTITLE8=A Day In Delhi
TTITLE9=Black Beans
TTITLE10=The Sixteenth Night (十六夜)
EXTD=YEAR: 2009
EXTT0=
EXTT1=
EXTT2=
EXTT3=
EXTT4=
EXTT5=
EXTT6=
EXTT7=
EXTT8=
EXTT9=
EXTT10=
PLAYORDER=
